<svg width="240" height="60" viewBox="0 0 240 60" fill="none" xmlns="http://www.w3.org/2000/svg">
<path d="M28.2955 11.7353V4.23529H4.45766V55.7647H28.2955V48.2647C23.4123 48.2647 18.7291 46.3403 15.2762 42.915C11.8233 39.4897 9.88343 34.8441 9.88343 30C9.88343 25.1559 11.8233 20.5101 15.2762 17.0849C18.7291 13.6596 23.4123 11.7353 28.2955 11.7353Z" fill="white"/>
<path d="M28.2955 11.7353V48.2647C33.1787 48.2647 37.8619 46.3403 41.3149 42.915C44.7678 39.4897 46.7076 34.8441 46.7076 30C46.7076 25.1559 44.7678 20.5101 41.3149 17.0849C37.8619 13.6596 33.1787 11.7353 28.2955 11.7353Z" fill="white"/>
<path d="M60.0852 16.3235H65.422V41.8235H60.0852V16.3235Z" fill="white"/>
<path d="M68.4107 33.0882C68.4107 31.2537 68.9598 29.4604 69.9884 27.9357C71.017 26.4109 72.4787 25.2235 74.1885 24.5238C75.8982 23.8242 77.7787 23.6439 79.5918 24.0057C81.4049 24.3674 83.069 25.2551 84.3729 26.556C85.6769 27.8571 86.5623 29.5128 86.9166 31.3135C87.2708 33.1142 87.0783 34.9786 86.3632 36.6706C85.6481 38.3624 84.4428 39.8058 82.9 40.8173C81.3571 41.829 79.5461 42.3634 77.6967 42.3529C76.4702 42.3625 75.2539 42.129 74.1195 41.6659C72.985 41.2031 71.955 40.5201 71.0901 39.6574C70.2252 38.7944 69.5428 37.7688 69.0826 36.6408C68.6225 35.5128 68.3941 34.305 68.4107 33.0882ZM81.7883 33.0882C81.7673 32.2973 81.5117 31.53 81.0534 30.8825C80.5952 30.2349 79.9547 29.7357 79.2119 29.4473C78.4692 29.1589 77.6572 29.0942 76.8777 29.2613C76.098 29.4282 75.3854 29.8195 74.8287 30.3863C74.2721 30.9529 73.8962 31.6698 73.7482 32.4473C73.6002 33.2248 73.6865 34.0283 73.9964 34.7573C74.3062 35.4863 74.8259 36.1087 75.4905 36.5462C76.1549 36.9838 76.9346 37.2173 77.7323 37.2177C78.2754 37.2282 78.8148 37.1275 79.3168 36.9217C79.8188 36.7161 80.2726 36.4099 80.65 36.0224C81.0273 35.6349 81.3199 35.1741 81.5097 34.6694C81.6995 34.1645 81.7823 33.6263 81.7527 33.0882H81.7883Z" fill="white"/>
<path d="M108.099 24.3529V40.9588C108.099 46.8176 103.474 49.3059 98.795 49.3059C97.1447 49.4402 95.4894 49.1149 94.0155 48.3667C92.5415 47.6185 91.3073 46.4769 90.4518 45.0706L94.9525 42.4941C95.3172 43.2236 95.8973 43.8254 96.6156 44.2195C97.334 44.6135 98.1562 44.7812 98.9729 44.7C99.4932 44.7635 100.021 44.7124 100.519 44.55C101.017 44.3875 101.473 44.118 101.854 43.7605C102.234 43.4029 102.531 42.9665 102.722 42.4821C102.913 41.9979 102.993 41.4776 102.958 40.9588V39.3529C102.337 40.0999 101.549 40.6929 100.656 41.085C99.7638 41.4771 98.7916 41.6575 97.8166 41.6118C95.4575 41.6118 93.1952 40.6821 91.5271 39.0274C89.859 37.3728 88.9219 35.1284 88.9219 32.7882C88.9219 30.4481 89.859 28.2039 91.5271 26.5491C93.1952 24.8944 95.4575 23.9647 97.8166 23.9647C98.7916 23.919 99.7638 24.0994 100.656 24.4915C101.549 24.8836 102.337 25.4765 102.958 26.2235V24.4588L108.099 24.3529ZM102.958 32.7353C102.993 31.8911 102.773 31.0555 102.326 30.3362C101.879 29.6169 101.226 29.0467 100.449 28.6989C99.6727 28.3511 98.8094 28.2417 97.9698 28.3846C97.1303 28.5275 96.3529 28.9163 95.7379 29.5009C95.1229 30.0856 94.6983 30.8395 94.5186 31.6655C94.3389 32.4916 94.4124 33.3519 94.7296 34.1361C95.0469 34.9204 95.5934 35.5925 96.2988 36.0662C97.0043 36.5398 97.8365 36.7934 98.6883 36.7941C99.2442 36.8338 99.8022 36.7574 100.326 36.57C100.851 36.3824 101.329 36.0879 101.732 35.7053C102.134 35.3229 102.451 34.8609 102.662 34.3493C102.873 33.8377 102.974 33.2878 102.958 32.7353Z" fill="white"/>
<path d="M111.105 33.0882C111.105 31.255 111.654 29.4632 112.681 27.9392C113.708 26.4152 115.167 25.2277 116.875 24.5271C118.582 23.8263 120.461 23.6439 122.273 24.0028C124.086 24.3618 125.75 25.2459 127.055 26.5433C128.36 27.8409 129.249 29.4933 129.607 31.2916C129.965 33.09 129.778 34.9533 129.068 36.6459C128.359 38.3386 127.159 39.7842 125.621 40.8002C124.082 41.8161 122.275 42.3565 120.427 42.3529C119.198 42.3648 117.979 42.133 116.841 41.6714C115.704 41.2098 114.671 40.5275 113.803 39.6646C112.934 38.8016 112.249 37.7755 111.785 36.6462C111.322 35.517 111.091 34.3073 111.105 33.0882ZM124.483 33.0882C124.462 32.2966 124.206 31.5286 123.747 30.8806C123.288 30.2328 122.646 29.7335 121.902 29.4457C121.159 29.1579 120.346 29.0942 119.566 29.2627C118.786 29.431 118.073 29.8242 117.517 30.3926C116.961 30.961 116.587 31.6796 116.441 32.4582C116.295 33.2368 116.384 34.0408 116.696 34.7695C117.009 35.4983 117.531 36.1193 118.198 36.5548C118.865 36.9902 119.646 37.2208 120.445 37.2176C120.988 37.2282 121.527 37.1275 122.029 36.9217C122.531 36.7161 122.985 36.4099 123.362 36.0224C123.74 35.6349 124.032 35.1741 124.222 34.6694C124.412 34.1645 124.495 33.6263 124.465 33.0882H124.483Z" fill="white"/>
<path d="M132.221 19.6765C132.221 19.0553 132.407 18.4479 132.755 17.9313C133.103 17.4147 133.598 17.0121 134.176 16.7744C134.755 16.5366 135.391 16.4744 136.006 16.5956C136.62 16.7168 137.184 17.016 137.627 17.4553C138.07 17.8946 138.371 18.4544 138.494 19.0636C138.616 19.6729 138.553 20.3045 138.313 20.8786C138.074 21.4525 137.668 21.943 137.147 22.2882C136.626 22.6334 136.014 22.8176 135.388 22.8176C134.551 22.8085 133.751 22.4746 133.159 21.8875C132.567 21.3003 132.231 20.5068 132.221 19.6765ZM132.737 24.3529H138.074V41.8235H132.737V24.3529Z" fill="white"/>
<path d="M160.916 33.0882C160.975 34.2501 160.803 35.4123 160.408 36.5079C160.014 37.6034 159.404 38.6107 158.616 39.4717C157.827 40.3329 156.875 41.0306 155.813 41.5251C154.751 42.0196 153.602 42.3009 152.43 42.3529C151.436 42.4186 150.439 42.2606 149.516 41.8909C148.591 41.5211 147.763 40.9491 147.093 40.2176V48.8471H141.756V24.3529H147.093V25.9941C147.764 25.2648 148.593 24.6955 149.517 24.3288C150.441 23.9619 151.437 23.8073 152.43 23.8765C153.597 23.9285 154.742 24.2082 155.8 24.6993C156.858 25.1905 157.808 25.8836 158.596 26.739C159.384 27.5943 159.995 28.5953 160.393 29.6848C160.79 30.7742 160.968 31.9306 160.916 33.0882ZM155.579 33.0882C155.558 32.2685 155.293 31.4733 154.819 30.8022C154.344 30.1311 153.68 29.6137 152.91 29.3153C152.141 29.0167 151.299 28.9503 150.491 29.1242C149.684 29.298 148.946 29.7046 148.37 30.2928C147.794 30.8809 147.406 31.6246 147.255 32.4307C147.103 33.2366 147.195 34.0691 147.518 34.8236C147.842 35.5781 148.382 36.2211 149.073 36.6722C149.763 37.1232 150.572 37.362 151.398 37.3588C151.964 37.3826 152.529 37.2875 153.056 37.0796C153.582 36.8718 154.058 36.5559 154.453 36.1526C154.848 35.7494 155.152 35.2678 155.346 34.7398C155.54 34.2116 155.619 33.6489 155.579 33.0882Z" fill="white"/>
<path d="M177.157 36.5823C177.157 40.6059 173.6 42.3176 169.828 42.3176C168.29 42.4549 166.746 42.1315 165.395 41.389C164.044 40.6466 162.948 39.5193 162.25 38.1529L166.84 35.5765C167.021 36.2061 167.416 36.7548 167.956 37.1306C168.497 37.5065 169.152 37.6867 169.81 37.6412C171.073 37.6412 171.714 37.2529 171.714 36.547C171.714 34.6235 163.05 35.647 163.05 29.5941C163.05 25.7823 166.288 23.8765 169.953 23.8765C171.346 23.8145 172.73 24.1281 173.957 24.7837C175.185 25.4393 176.211 26.4125 176.926 27.6L172.336 30C172.134 29.5447 171.802 29.1575 171.383 28.885C170.963 28.6126 170.472 28.4666 169.97 28.4647C169.045 28.4647 168.494 28.8176 168.494 29.4353C168.494 31.447 177.157 30.1235 177.157 36.5823Z" fill="white"/>
<path d="M196.495 24.3529V41.8235H191.158V40.1823C190.551 40.9089 189.781 41.4836 188.911 41.8608C188.039 42.2379 187.091 42.4064 186.141 42.3529C182.583 42.3529 179.541 39.8294 179.541 35.1176V24.3529H184.878V34.3235C184.835 34.7403 184.885 35.1612 185.024 35.5572C185.163 35.9531 185.385 36.3145 185.677 36.6166C185.97 36.9185 186.326 37.1539 186.719 37.3066C187.112 37.4591 187.534 37.5251 187.956 37.5C189.877 37.5 191.229 36.3706 191.229 33.9706V24.3529H196.495Z" fill="white"/>
<path d="M226.737 31.0941V41.8235H221.4V31.553C221.4 29.7882 220.564 28.6941 218.874 28.6941C217.184 28.6941 216.116 29.9118 216.116 31.9765V41.8235H210.779V31.553C210.779 29.7882 209.943 28.6941 208.253 28.6941C206.563 28.6941 205.496 29.9118 205.496 31.9765V41.8235H200.159V24.353H205.496V25.9588C206.049 25.2494 206.77 24.6875 207.597 24.324C208.422 23.9605 209.328 23.8066 210.228 23.8765C211.13 23.8297 212.03 24.0168 212.838 24.419C213.645 24.8211 214.334 25.4248 214.835 26.1706C215.422 25.3913 216.198 24.7722 217.091 24.3711C217.982 23.9698 218.964 23.7997 219.941 23.8765C224.104 23.8765 226.737 26.7353 226.737 31.0941Z" fill="white"/>
<path d="M231.22 24.2471C233.381 24.2471 235.133 22.5088 235.133 20.3647C235.133 18.2206 233.381 16.4824 231.22 16.4824C229.058 16.4824 227.306 18.2206 227.306 20.3647C227.306 22.5088 229.058 24.2471 231.22 24.2471Z" fill="white"/>
</svg>
