<svg width="200" height="51" viewBox="0 0 200 51" fill="none" xmlns="http://www.w3.org/2000/svg">
<path d="M23.0597 9.84592V3.55341H3.05969V46.7867H23.0597V40.4942C18.9627 40.4942 15.0334 38.8796 12.1365 36.0058C9.23945 33.132 7.61193 29.2343 7.61193 25.1701C7.61193 21.1058 9.23945 17.208 12.1365 14.3343C15.0334 11.4604 18.9627 9.84592 23.0597 9.84592Z" fill="#B568F1"/>
<path d="M23.0597 9.84592V40.4942C27.1567 40.4942 31.086 38.8796 33.983 36.0058C36.88 33.1319 38.5075 29.2343 38.5075 25.1701C38.5075 21.1058 36.88 17.208 33.983 14.3343C31.086 11.4604 27.1567 9.84592 23.0597 9.84592Z" fill="#B568F1"/>
<path d="M49.7313 13.6955H54.2089V35.09H49.7313V13.6955Z" fill="#B568F1"/>
<path d="M56.7164 27.7611C56.7164 26.2219 57.1772 24.7173 58.0401 23.4381C58.9031 22.1588 60.1295 21.1625 61.564 20.5755C62.9985 19.9886 64.5763 19.8373 66.0974 20.1408C67.6186 20.4443 69.0148 21.189 70.1088 22.2805C71.2028 23.3722 71.9457 24.7613 72.243 26.2721C72.5401 27.7829 72.3786 29.3471 71.7786 30.7667C71.1786 32.1862 70.1674 33.3971 68.873 34.2458C67.5785 35.0946 66.0591 35.5429 64.5074 35.5342C63.4783 35.5422 62.4579 35.3463 61.5061 34.9578C60.5543 34.5695 59.6901 33.9965 58.9645 33.2726C58.2388 32.5486 57.6663 31.6881 57.2801 30.7417C56.8942 29.7953 56.7025 28.782 56.7164 27.7611ZM67.9403 27.7611C67.9227 27.0975 67.7082 26.4537 67.3237 25.9105C66.9392 25.3671 66.4019 24.9483 65.7786 24.7063C65.1555 24.4644 64.4743 24.4101 63.8203 24.5503C63.1661 24.6904 62.5682 25.0186 62.1012 25.4942C61.6342 25.9696 61.3188 26.571 61.1946 27.2234C61.0704 27.8757 61.1428 28.5498 61.4028 29.1614C61.6628 29.7731 62.0988 30.2953 62.6564 30.6623C63.2139 31.0295 63.868 31.2254 64.5373 31.2257C64.993 31.2346 65.4455 31.15 65.8667 30.9774C66.2879 30.8049 66.6686 30.548 66.9852 30.2229C67.3018 29.8977 67.5473 29.5112 67.7066 29.0877C67.8658 28.6641 67.9352 28.2125 67.9104 27.7611H67.9403Z" fill="#B568F1"/>
<path d="M90.015 20.4322V34.3645C90.015 39.2801 86.1344 41.3677 82.209 41.3677C80.8244 41.4804 79.4356 41.2075 78.199 40.5798C76.9623 39.952 75.9268 38.9942 75.209 37.8143L78.9851 35.6527C79.2911 36.2647 79.7778 36.7696 80.3805 37.1002C80.9832 37.4309 81.673 37.5715 82.3583 37.5034C82.7948 37.5567 83.2378 37.5138 83.6556 37.3776C84.0735 37.2412 84.4557 37.0151 84.7751 36.7151C85.0947 36.4152 85.3433 36.049 85.5035 35.6426C85.6636 35.2363 85.7312 34.7998 85.7015 34.3645V33.0172C85.1805 33.6439 84.5193 34.1414 83.7706 34.4704C83.0218 34.7994 82.2062 34.9507 81.3881 34.9124C79.4088 34.9124 77.5108 34.1324 76.1112 32.744C74.7117 31.3558 73.9254 29.4728 73.9254 27.5094C73.9254 25.546 74.7117 23.6631 76.1112 22.2748C77.5108 20.8864 79.4088 20.1064 81.3881 20.1064C82.2062 20.0681 83.0218 20.2194 83.7706 20.5484C84.5193 20.8774 85.1805 21.3749 85.7015 22.0016V20.521L90.015 20.4322ZM85.7015 27.465C85.7312 26.7567 85.5468 26.0556 85.1717 25.4521C84.7966 24.8486 84.2483 24.3703 83.5968 24.0784C82.9454 23.7866 82.2211 23.6948 81.5166 23.8147C80.8123 23.9347 80.16 24.2608 79.6441 24.7514C79.1281 25.2419 78.7718 25.8744 78.6211 26.5675C78.4703 27.2605 78.532 27.9823 78.7981 28.6403C79.0644 29.2983 79.5229 29.8622 80.1147 30.2596C80.7066 30.657 81.4048 30.8698 82.1194 30.8703C82.5859 30.9037 83.0541 30.8396 83.4938 30.6823C83.9336 30.5249 84.3354 30.2778 84.6729 29.9568C85.0105 29.636 85.2765 29.2484 85.4536 28.8191C85.6308 28.3899 85.7153 27.9286 85.7015 27.465Z" fill="#B568F1"/>
<path d="M92.5373 27.7611C92.5373 26.2231 92.9973 24.7197 93.8589 23.441C94.7205 22.1624 95.9452 21.1661 97.3779 20.5783C98.8105 19.9904 100.387 19.8373 101.907 20.1384C103.428 20.4396 104.824 21.1814 105.919 22.2699C107.014 23.3586 107.76 24.745 108.06 26.2537C108.361 27.7626 108.204 29.326 107.608 30.746C107.013 32.1662 106.006 33.3791 104.716 34.2315C103.425 35.0838 101.909 35.5372 100.358 35.5342C99.3271 35.5441 98.3043 35.3497 97.35 34.9624C96.3956 34.5751 95.5288 34.0027 94.8004 33.2787C94.0719 32.5547 93.4965 31.6937 93.1079 30.7463C92.7194 29.7989 92.5253 28.7839 92.5373 27.7611ZM103.761 27.7611C103.744 27.0969 103.529 26.4526 103.144 25.9089C102.758 25.3654 102.22 24.9465 101.596 24.705C100.972 24.4635 100.29 24.4101 99.6356 24.5515C98.9811 24.6927 98.3832 25.0226 97.9168 25.4995C97.4504 25.9764 97.1362 26.5793 97.0138 27.2325C96.8913 27.8858 96.9658 28.5603 97.228 29.1717C97.4902 29.7832 97.9286 30.3042 98.4882 30.6696C99.0476 31.0349 99.7032 31.2284 100.373 31.2257C100.829 31.2346 101.281 31.15 101.702 30.9774C102.124 30.8049 102.504 30.548 102.821 30.2229C103.138 29.8978 103.383 29.5112 103.542 29.0877C103.702 28.6641 103.771 28.2125 103.746 27.7611H103.761Z" fill="#B568F1"/>
<path d="M110.254 16.5086C110.254 15.9874 110.41 15.4778 110.702 15.0444C110.993 14.611 111.408 14.2732 111.894 14.0737C112.379 13.8743 112.913 13.8221 113.429 13.9238C113.944 14.0255 114.418 14.2765 114.789 14.645C115.161 15.0136 115.414 15.4833 115.516 15.9944C115.619 16.5056 115.566 17.0355 115.365 17.5172C115.164 17.9987 114.823 18.4103 114.386 18.6999C113.95 18.9895 113.436 19.1441 112.91 19.1441C112.208 19.1364 111.537 18.8562 111.04 18.3636C110.544 17.871 110.262 17.2052 110.254 16.5086ZM110.687 20.4322H115.164V35.09H110.687V20.4322Z" fill="#B568F1"/>
<path d="M134.328 27.7611C134.379 28.7359 134.234 29.711 133.903 30.6302C133.572 31.5493 133.06 32.3945 132.399 33.1169C131.737 33.8394 130.938 34.4248 130.047 34.8397C129.157 35.2545 128.192 35.4905 127.209 35.5342C126.375 35.5893 125.539 35.4568 124.764 35.1466C123.988 34.8363 123.294 34.3564 122.731 33.7427V40.9828H118.254V20.4322H122.731V21.8091C123.294 21.1972 123.99 20.7196 124.765 20.4119C125.54 20.1041 126.376 19.9744 127.209 20.0324C128.188 20.0761 129.149 20.3108 130.036 20.7228C130.924 21.1349 131.721 21.7164 132.382 22.4341C133.043 23.1517 133.556 23.9915 133.889 24.9056C134.223 25.8196 134.373 26.7898 134.328 27.7611ZM129.851 27.7611C129.833 27.0734 129.611 26.4062 129.213 25.8431C128.815 25.2801 128.258 24.846 127.612 24.5956C126.966 24.3451 126.26 24.2894 125.582 24.4353C124.905 24.5811 124.286 24.9222 123.803 25.4157C123.319 25.9092 122.994 26.5331 122.867 27.2094C122.74 27.8856 122.817 28.584 123.088 29.2171C123.359 29.8501 123.813 30.3896 124.392 30.768C124.971 31.1465 125.65 31.3468 126.343 31.3441C126.818 31.3641 127.292 31.2843 127.734 31.1099C128.176 30.9355 128.575 30.6705 128.906 30.3322C129.238 29.9938 129.493 29.5898 129.656 29.1468C129.818 28.7037 129.885 28.2315 129.851 27.7611Z" fill="#B568F1"/>
<path d="M147.955 30.6927C147.955 34.0684 144.97 35.5046 141.806 35.5046C140.515 35.6198 139.22 35.3484 138.086 34.7255C136.953 34.1026 136.034 33.1568 135.448 32.0104L139.299 29.8487C139.451 30.377 139.782 30.8373 140.236 31.1527C140.689 31.4681 141.238 31.6192 141.791 31.581C142.851 31.581 143.388 31.2553 143.388 30.6631C143.388 29.0492 136.119 29.908 136.119 24.8295C136.119 21.6315 138.836 20.0324 141.91 20.0324C143.079 19.9804 144.24 20.2435 145.27 20.7936C146.3 21.3436 147.161 22.1602 147.761 23.1565L143.91 25.1701C143.74 24.7881 143.462 24.4632 143.11 24.2346C142.758 24.006 142.346 23.8836 141.925 23.882C141.149 23.882 140.687 24.1781 140.687 24.6963C140.687 26.3842 147.955 25.2737 147.955 30.6927Z" fill="#B568F1"/>
<path d="M164.179 20.4322V35.0901H159.701V33.7131C159.193 34.3227 158.546 34.8049 157.816 35.1213C157.085 35.4377 156.29 35.5791 155.493 35.5342C152.507 35.5342 149.955 33.417 149.955 29.4638V20.4322H154.433V28.7975C154.397 29.1473 154.439 29.5004 154.555 29.8326C154.672 30.1647 154.858 30.4679 155.103 30.7214C155.349 30.9747 155.648 31.1723 155.978 31.3003C156.307 31.4283 156.661 31.4836 157.015 31.4626C158.627 31.4626 159.761 30.515 159.761 28.5014V20.4322H164.179Z" fill="#B568F1"/>
<path d="M189.552 26.088V35.09H185.075V26.473C185.075 24.9924 184.373 24.0744 182.955 24.0744C181.537 24.0744 180.642 25.096 180.642 26.8283V35.09H176.164V26.473C176.164 24.9924 175.463 24.0744 174.045 24.0744C172.627 24.0744 171.731 25.096 171.731 26.8283V35.09H167.254V20.4322H171.731V21.7795C172.195 21.1843 172.8 20.7129 173.494 20.4079C174.186 20.1029 174.946 19.9738 175.701 20.0324C176.458 19.9932 177.213 20.1501 177.891 20.4875C178.569 20.825 179.146 21.3315 179.567 21.9572C180.06 21.3033 180.71 20.784 181.46 20.4474C182.207 20.1107 183.031 19.968 183.851 20.0324C187.343 20.0324 189.552 22.431 189.552 26.088Z" fill="#B568F1"/>
<path d="M193.313 20.3433C195.127 20.3433 196.597 18.885 196.597 17.086C196.597 15.2871 195.127 13.8287 193.313 13.8287C191.5 13.8287 190.03 15.2871 190.03 17.086C190.03 18.885 191.5 20.3433 193.313 20.3433Z" fill="#B568F1"/>
</svg>
