<svg width="14" height="15" viewBox="0 0 14 15" fill="none" xmlns="http://www.w3.org/2000/svg">
<path d="M9.69172 7.63507L13.6718 3.65501C14.1602 3.1666 14.1602 2.37473 13.6718 1.88592L12.7872 1.00138C12.2988 0.512969 11.5069 0.512969 11.0181 1.00138L7.03809 4.98143L3.05803 1.00138C2.56962 0.512969 1.77775 0.512969 1.28894 1.00138L0.404393 1.88592C-0.0840163 2.37433 -0.0840163 3.16621 0.404393 3.65501L4.38445 7.63507L0.404393 11.6151C-0.0840163 12.1035 -0.0840163 12.8954 0.404393 13.3842L1.28894 14.2688C1.77735 14.7572 2.56962 14.7572 3.05803 14.2688L7.03809 10.2887L11.0181 14.2688C11.5066 14.7572 12.2988 14.7572 12.7872 14.2688L13.6718 13.3842C14.1602 12.8958 14.1602 12.1039 13.6718 11.6151L9.69172 7.63507Z" fill="white"/>
</svg>
