<svg width="14" height="14" viewBox="0 0 14 14" fill="none" xmlns="http://www.w3.org/2000/svg">
<path d="M12.9029 0.593362C12.3041 -0.00546572 11.3361 -0.00546572 10.7373 0.593362L9.91421 1.41367L12.5912 4.09063L13.4142 3.26758C14.013 2.66875 14.013 1.70078 13.4142 1.10196L12.9029 0.593362ZM4.72163 6.60899C4.55483 6.77578 4.42632 6.98086 4.35249 7.20782L3.54312 9.63594C3.46382 9.8711 3.52671 10.1309 3.70171 10.3086C3.87671 10.4863 4.13647 10.5465 4.37436 10.4672L6.80249 9.65782C7.02671 9.58399 7.23179 9.45547 7.40132 9.28868L11.9759 4.71133L9.29624 2.03164L4.72163 6.60899ZM2.63257 1.75C1.18335 1.75 0.00756836 2.92578 0.00756836 4.375V11.375C0.00756836 12.8242 1.18335 14 2.63257 14H9.63257C11.0818 14 12.2576 12.8242 12.2576 11.375V8.75C12.2576 8.26602 11.8666 7.875 11.3826 7.875C10.8986 7.875 10.5076 8.26602 10.5076 8.75V11.375C10.5076 11.859 10.1166 12.25 9.63257 12.25H2.63257C2.14858 12.25 1.75757 11.859 1.75757 11.375V4.375C1.75757 3.89102 2.14858 3.5 2.63257 3.5H5.25757C5.74155 3.5 6.13257 3.10899 6.13257 2.625C6.13257 2.14102 5.74155 1.75 5.25757 1.75H2.63257Z" fill="white"/>
</svg>
