<svg width="34" height="30" viewBox="0 0 34 30" fill="none" xmlns="http://www.w3.org/2000/svg">
<g clip-path="url(#clip0_991_589)">
<path d="M16.875 0H23.4375C23.9531 0 24.375 0.421875 24.375 0.9375V4.6875C24.375 5.20312 23.9531 5.625 23.4375 5.625H18.791L24.041 9.375H30C32.0684 9.375 33.75 11.0566 33.75 13.125V26.25C33.75 28.3184 32.0684 30 30 30H19.6875V23.4375C19.6875 21.8848 18.4277 20.625 16.875 20.625C15.3223 20.625 14.0625 21.8848 14.0625 23.4375V30H3.75C1.68164 30 0 28.3184 0 26.25V13.125C0 11.0566 1.68164 9.375 3.75 9.375H9.70898L15 5.5957V1.875C15 0.837891 15.8379 0 16.875 0ZM19.6875 14.0625C19.6875 13.3166 19.3912 12.6012 18.8637 12.0738C18.3363 11.5463 17.6209 11.25 16.875 11.25C16.1291 11.25 15.4137 11.5463 14.8863 12.0738C14.3588 12.6012 14.0625 13.3166 14.0625 14.0625C14.0625 14.8084 14.3588 15.5238 14.8863 16.0512C15.4137 16.5787 16.1291 16.875 16.875 16.875C17.6209 16.875 18.3363 16.5787 18.8637 16.0512C19.3912 15.5238 19.6875 14.8084 19.6875 14.0625ZM4.6875 13.125C4.17188 13.125 3.75 13.5469 3.75 14.0625V17.8125C3.75 18.3281 4.17188 18.75 4.6875 18.75H6.5625C7.07812 18.75 7.5 18.3281 7.5 17.8125V14.0625C7.5 13.5469 7.07812 13.125 6.5625 13.125H4.6875ZM26.25 14.0625V17.8125C26.25 18.3281 26.6719 18.75 27.1875 18.75H29.0625C29.5781 18.75 30 18.3281 30 17.8125V14.0625C30 13.5469 29.5781 13.125 29.0625 13.125H27.1875C26.6719 13.125 26.25 13.5469 26.25 14.0625ZM4.6875 20.625C4.17188 20.625 3.75 21.0469 3.75 21.5625V25.3125C3.75 25.8281 4.17188 26.25 4.6875 26.25H6.5625C7.07812 26.25 7.5 25.8281 7.5 25.3125V21.5625C7.5 21.0469 7.07812 20.625 6.5625 20.625H4.6875ZM27.1875 20.625C26.6719 20.625 26.25 21.0469 26.25 21.5625V25.3125C26.25 25.8281 26.6719 26.25 27.1875 26.25H29.0625C29.5781 26.25 30 25.8281 30 25.3125V21.5625C30 21.0469 29.5781 20.625 29.0625 20.625H27.1875Z" fill="#D95F18"/>
</g>
<defs>
<clipPath id="clip0_991_589">
<rect width="33.75" height="30" fill="white"/>
</clipPath>
</defs>
</svg>
