<svg width="20" height="20" viewBox="0 0 20 20" fill="none" xmlns="http://www.w3.org/2000/svg">
<path fill-rule="evenodd" clip-rule="evenodd" d="M1.40408 15H18.5858C19.3668 15 20 14.3668 20 13.5858C20 13.2107 19.851 12.851 19.5858 12.5858L18.5858 11.5858C18.2107 11.2107 18 10.702 18 10.1716L18 7.96958C18 3.5681 14.4319 0 10.0304 0C5.61873 0 2.04641 3.58403 2.06086 7.99568L2.06791 10.1473C2.06969 10.692 1.84919 11.2139 1.45736 11.5924L0.428635 12.586C0.154705 12.8506 2.07459e-06 13.2151 0 13.5959C0 14.3714 0.628628 15 1.40408 15ZM12.584 17C13.2374 17 13.7129 17.6278 13.357 18.1758C12.6439 19.2738 11.4067 20 9.99996 20C8.59319 20 7.35604 19.2738 6.64294 18.1758C6.28703 17.6278 6.76251 17 7.41595 17H12.584Z" fill="#9DA6BA"/>
</svg>
