<svg width="14" height="15" viewBox="0 0 14 15" fill="none" xmlns="http://www.w3.org/2000/svg">
<path d="M13.5607 3.56066L10.9393 0.939344C10.658 0.658039 10.2765 0.500002 9.87869 0.5H1.5C0.671562 0.5 0 1.17156 0 2V13C0 13.8284 0.671562 14.5 1.5 14.5H12.5C13.3284 14.5 14 13.8284 14 13V4.62131C14 4.22349 13.842 3.84196 13.5607 3.56066ZM7 12.5C5.89544 12.5 5 11.6046 5 10.5C5 9.39544 5.89544 8.5 7 8.5C8.10456 8.5 9 9.39544 9 10.5C9 11.6046 8.10456 12.5 7 12.5ZM10 2.98375V6.125C10 6.33209 9.83209 6.5 9.625 6.5H2.375C2.16791 6.5 2 6.33209 2 6.125V2.875C2 2.66791 2.16791 2.5 2.375 2.5H9.51625C9.61572 2.5 9.71109 2.5395 9.78141 2.60984L9.89016 2.71859C9.92498 2.75341 9.95261 2.79475 9.97146 2.84024C9.99031 2.88574 10 2.9345 10 2.98375Z" fill="white"/>
</svg>
