<svg width="30" height="30" viewBox="0 0 30 30" fill="none" xmlns="http://www.w3.org/2000/svg">
<g clip-path="url(#clip0_991_607)">
<path d="M9.375 5.625C9.375 4.13316 9.96763 2.70242 11.0225 1.64752C12.0774 0.592632 13.5082 0 15 0C16.4918 0 17.9226 0.592632 18.9775 1.64752C20.0324 2.70242 20.625 4.13316 20.625 5.625C20.625 7.11684 20.0324 8.54758 18.9775 9.60248C17.9226 10.6574 16.4918 11.25 15 11.25C13.5082 11.25 12.0774 10.6574 11.0225 9.60248C9.96763 8.54758 9.375 7.11684 9.375 5.625ZM14.0625 14.5312V30L11.2266 28.582C10.002 27.9727 8.67773 27.5859 7.3125 27.4512L1.6875 26.8887C0.732422 26.7891 0 25.9863 0 25.0195V13.125C0 12.0879 0.837891 11.25 1.875 11.25H3.65039C7.37695 11.25 11.0098 12.3984 14.0625 14.5312ZM15.9375 30V14.5312C18.9902 12.3984 22.623 11.25 26.3496 11.25H28.125C29.1621 11.25 30 12.0879 30 13.125V25.0195C30 25.9805 29.2676 26.7891 28.3125 26.8828L22.6875 27.4453C21.3281 27.5801 19.998 27.9668 18.7734 28.5762L15.9375 30Z" fill="#344ED1"/>
</g>
<defs>
<clipPath id="clip0_991_607">
<rect width="30" height="30" fill="white"/>
</clipPath>
</defs>
</svg>
