<svg width="14" height="14" viewBox="0 0 14 14" fill="none" xmlns="http://www.w3.org/2000/svg">
<path d="M4.57944 0.483984C4.7271 0.185938 5.03062 0 5.36147 0H8.65366C8.98452 0 9.28804 0.185938 9.43569 0.483984L9.63257 0.875H12.2576C12.7416 0.875 13.1326 1.26602 13.1326 1.75C13.1326 2.23398 12.7416 2.625 12.2576 2.625H1.75757C1.27358 2.625 0.882568 2.23398 0.882568 1.75C0.882568 1.26602 1.27358 0.875 1.75757 0.875H4.38257L4.57944 0.483984ZM1.75757 3.5H12.2576V12.25C12.2576 13.2152 11.4728 14 10.5076 14H3.50757C2.54233 14 1.75757 13.2152 1.75757 12.25V3.5ZM4.38257 5.25C4.14194 5.25 3.94507 5.44688 3.94507 5.6875V11.8125C3.94507 12.0531 4.14194 12.25 4.38257 12.25C4.62319 12.25 4.82007 12.0531 4.82007 11.8125V5.6875C4.82007 5.44688 4.62319 5.25 4.38257 5.25ZM7.00757 5.25C6.76694 5.25 6.57007 5.44688 6.57007 5.6875V11.8125C6.57007 12.0531 6.76694 12.25 7.00757 12.25C7.24819 12.25 7.44507 12.0531 7.44507 11.8125V5.6875C7.44507 5.44688 7.24819 5.25 7.00757 5.25ZM9.63257 5.25C9.39194 5.25 9.19507 5.44688 9.19507 5.6875V11.8125C9.19507 12.0531 9.39194 12.25 9.63257 12.25C9.87319 12.25 10.0701 12.0531 10.0701 11.8125V5.6875C10.0701 5.44688 9.87319 5.25 9.63257 5.25Z" fill="white"/>
</svg>
