<svg width="14" height="12" viewBox="0 0 14 12" fill="none" xmlns="http://www.w3.org/2000/svg">
<path d="M7.00269 11.4963C5.03897 11.4963 3.46654 10.5934 2.32185 9.51863C1.18445 8.45372 0.423748 7.17779 0.0640573 6.30181C-0.0161441 6.10797 -0.0161441 5.89204 0.0640573 5.6982C0.423748 4.82222 1.18445 3.54629 2.32185 2.48138C3.46654 1.40665 5.03897 0.503687 7.00269 0.503687C8.96641 0.503687 10.5388 1.40665 11.6835 2.48138C12.8209 3.54875 13.5816 4.82222 13.9438 5.6982C14.024 5.89204 14.024 6.10797 13.9438 6.30181C13.5816 7.17779 12.8209 8.45372 11.6835 9.51863C10.5388 10.5934 8.96641 11.4963 7.00269 11.4963ZM10.5024 6C10.5024 4.0493 8.93482 2.46666 7.00269 2.46666C5.07057 2.46666 3.503 4.0493 3.503 6C3.503 7.95071 5.07057 9.53335 7.00269 9.53335C8.93482 9.53335 10.5024 7.95071 10.5024 6ZM7.00269 7.57038C7.00269 6.70422 6.30518 6 5.44727 6C5.16778 6 4.9053 6.07362 4.67928 6.20612C4.67442 6.13741 4.66956 6.07116 4.66956 6C4.66956 4.69954 5.71461 3.64444 7.00269 3.64444C8.29077 3.64444 9.33582 4.69954 9.33582 6C9.33582 7.30047 8.29077 8.35557 7.00269 8.35557C6.93464 8.35557 6.86659 8.35312 6.79854 8.34575C6.92735 8.11756 7.00269 7.85256 7.00269 7.57038Z" fill="white"/>
</svg>
